<?xml version="1.0" encoding="UTF-8" standalone="no"?>
<!-- Created with Inkscape (http://www.inkscape.org/) -->

<svg
   xmlns:dc="http://purl.org/dc/elements/1.1/"
   xmlns:cc="http://creativecommons.org/ns#"
   xmlns:rdf="http://www.w3.org/1999/02/22-rdf-syntax-ns#"
   xmlns:svg="http://www.w3.org/2000/svg"
   xmlns="http://www.w3.org/2000/svg"
   xmlns:sodipodi="http://sodipodi.sourceforge.net/DTD/sodipodi-0.dtd"
   xmlns:inkscape="http://www.inkscape.org/namespaces/inkscape"
   width="120mm"
   height="120mm"
   viewBox="0 0 425.19685039 425.19685039"
   id="svg2816"
   version="1.1"
   inkscape:version="0.91 r13725"
   sodipodi:docname="icon.svg">
  <defs
     id="defs2818" />
  <sodipodi:namedview
     pagecolor="#ffffff"
     bordercolor="#666666"
     borderopacity="1.0"
     inkscape:pageopacity="0.0"
     inkscape:pageshadow="2"
     inkscape:zoom="1"
     inkscape:cx="190.39663"
     inkscape:cy="166.48219"
     inkscape:document-units="mm"
     inkscape:current-layer="Template"
     id="namedview2820"
     showgrid="false"
     units="mm"
     showguides="true"
     inkscape:guide-bbox="true"
     inkscape:snap-global="true"
     inkscape:snap-bbox="true"
     inkscape:snap-bbox-midpoints="true"
     inkscape:window-width="1339"
     inkscape:window-height="920"
     inkscape:window-maximized="0"
     inkscape:bbox-paths="true"
     inkscape:bbox-nodes="true"
     inkscape:snap-bbox-edge-midpoints="true"
     inkscape:snap-grids="true"
     inkscape:window-x="408"
     inkscape:window-y="287">
    <sodipodi:guide
       orientation="1,0"
       position="212.59843,0"
       id="guide3337" />
    <sodipodi:guide
       orientation="0,1"
       position="0,212.59843"
       id="guide3339" />
    <inkscape:grid
       type="xygrid"
       id="grid3351"
       units="mm"
       spacingx="1mm"
       spacingy="1mm"
       empspacing="5" />
  </sodipodi:namedview>
  <metadata
     id="metadata2822">
    <rdf:RDF>
      <cc:Work
         rdf:about="">
        <dc:format>image/svg+xml</dc:format>
        <dc:type
           rdf:resource="http://purl.org/dc/dcmitype/StillImage" />
        <dc:title></dc:title>
      </cc:Work>
    </rdf:RDF>
  </metadata>
  <g
     inkscape:groupmode="layer"
     id="Template"
     inkscape:label="Layer 1"
     style="fill:none;stroke:#000000;stroke-width:0.35433071px">
    <circle
       id="path3341"
       cx="212.59843"
       cy="212.59843"
       r="212.59843" />
    <circle
       id="path3349"
       cx="212.59843"
       cy="212.59843"
       r="67.322845" />
    <circle
       id="path3343"
       cx="212.59843"
       cy="212.59843"
       r="26.574814"
       style="fill:#2d6fa1;fill-opacity:1" />
    <rect
       style="fill:#1e4a6b;fill-opacity:1;stroke:none;stroke-opacity:1"
       id="rect5853"
       width="106.3878"
       height="106.3878"
       x="-0.17716536"
       y="-0.17716536" />
    <rect
       style="fill:#265e89;fill-opacity:1;stroke:none;stroke-width:0.35433072px;stroke-opacity:1"
       id="rect5853-4"
       width="106.3878"
       height="106.3878"
       x="106.21064"
       y="-0.17716536" />
    <rect
       style="fill:#3e7baa;fill-opacity:1;stroke:none;stroke-width:0.35433072px;stroke-opacity:1"
       id="rect5853-0"
       width="106.3878"
       height="106.3878"
       x="212.59842"
       y="-0.17716536" />
    <rect
       style="fill:#6a98ba;fill-opacity:1;stroke:none;stroke-width:0.35433072px;stroke-opacity:1"
       id="rect5853-2"
       width="106.3878"
       height="106.3878"
       x="318.98624"
       y="-0.17716536" />
    <rect
       style="fill:#27618d;fill-opacity:1;stroke:none;stroke-width:0.35433072px;stroke-opacity:1"
       id="rect5853-7"
       width="106.3878"
       height="106.3878"
       x="-0.1771698"
       y="106.21064" />
    <rect
       style="fill:#225379;fill-opacity:1;stroke:none;stroke-width:0.35433072px;stroke-opacity:1"
       id="rect5853-4-6"
       width="106.3878"
       height="106.3878"
       x="106.21064"
       y="106.21064" />
    <rect
       style="fill:#396d95;fill-opacity:1;stroke:none;stroke-width:0.35433072px;stroke-opacity:1"
       id="rect5853-0-1"
       width="106.3878"
       height="106.3878"
       x="212.59842"
       y="106.21064" />
    <rect
       style="fill:#81a6c3;fill-opacity:1;stroke:none;stroke-width:0.35433072px;stroke-opacity:1"
       id="rect5853-2-5"
       width="106.3878"
       height="106.3878"
       x="318.98621"
       y="106.21064" />
    <rect
       style="fill:#1d4969;fill-opacity:1;stroke:none;stroke-width:0.35433072px;stroke-opacity:1"
       id="rect5853-6"
       width="106.3878"
       height="106.3878"
       x="-0.1771698"
       y="212.59845" />
    <rect
       style="fill:#22557b;fill-opacity:1;stroke:none;stroke-width:0.35433072px;stroke-opacity:1"
       id="rect5853-4-0"
       width="106.3878"
       height="106.3878"
       x="106.21064"
       y="212.59845" />
    <rect
       style="fill:#588aaf;fill-opacity:1;stroke:none;stroke-width:0.35433072px;stroke-opacity:1"
       id="rect5853-0-5"
       width="106.3878"
       height="106.3878"
       x="212.59842"
       y="212.59845" />
    <rect
       style="fill:#4179a4;fill-opacity:1;stroke:none;stroke-width:0.35433072px;stroke-opacity:1"
       id="rect5853-2-4"
       width="106.3878"
       height="106.3878"
       x="318.98621"
       y="212.59845" />
    <rect
       style="fill:#183b55;fill-opacity:1;stroke:none;stroke-width:0.35433072px;stroke-opacity:1"
       id="rect5853-46"
       width="106.3878"
       height="106.3878"
       x="-0.1771698"
       y="318.98627" />
    <rect
       style="fill:#0f2536;fill-opacity:1;stroke:none;stroke-width:0.35433072px;stroke-opacity:1"
       id="rect5853-4-8"
       width="106.3878"
       height="106.3878"
       x="106.21064"
       y="318.98627" />
    <rect
       style="fill:#335c7c;fill-opacity:1;stroke:none;stroke-width:0.35433072px;stroke-opacity:1"
       id="rect5853-0-50"
       width="106.3878"
       height="106.3878"
       x="212.59842"
       y="318.98627" />
    <rect
       style="fill:#4b6b83;fill-opacity:1;stroke:none;stroke-width:0.35433072px;stroke-opacity:1"
       id="rect5853-2-8"
       width="106.3878"
       height="106.3878"
       x="318.98621"
       y="318.98627" />
    <path
       style="fill:#ffffff;fill-opacity:1;stroke-width:1.20087385px"
       d="M 68.832629,515.09266 C 5.0872708,435.96096 13.313858,325.64269 87.932661,258.96152 173.02095,182.92463 306.48691,200.34399 370.23417,295.80628 c 20.75142,31.07551 28.96566,59.38533 28.96309,99.81942 -0.003,47.24585 -12.303,82.21095 -42.026,119.46696 l -14.19528,17.79293 -129.90504,0 -129.905019,0 -14.333292,-17.79293 z m 47.018181,-28.71925 c -3.1378,-3.78086 -5.76088,-2.74523 -14.49939,5.72448 l -10.668569,10.34038 -6.98782,-9.45155 C 67.608268,471.22818 52.23246,431.64723 52.12736,411.72409 c -0.03428,-6.46314 1.767937,-7.62554 11.821729,-7.62554 9.602538,0 11.861962,-1.2911 11.861962,-6.77827 0,-5.48718 -2.259424,-6.77827 -11.861962,-6.77827 -10.690643,0 -11.857993,-0.92032 -11.821729,-9.32011 0.09834,-22.78106 16.608312,-63.99439 34.157341,-85.26592 l 6.73457,-8.16314 11.048879,10.70899 c 8.60559,8.34085 11.94998,9.80784 15.1238,6.63402 3.17382,-3.17383 1.78028,-6.44243 -6.30178,-14.78102 l -10.37675,-10.70607 10.8253,-9.1089 c 20.33097,-17.1074 60.69225,-32.50885 85.19319,-32.50885 8.77182,0 9.45534,0.98 9.45534,13.55655 0,9.79083 1.41214,13.55652 5.08369,13.55652 3.67155,0 5.08371,-3.76569 5.08371,-13.55652 0,-12.57655 0.68352,-13.55655 9.45533,-13.55655 24.50093,0 64.86221,15.40145 85.19318,32.50885 l 10.82531,9.1089 -10.37675,10.70607 c -8.08207,8.33859 -9.47561,11.60719 -6.30179,14.78102 3.17382,3.17382 6.51822,1.70683 15.12379,-6.63402 l 11.0489,-10.70899 6.73458,8.16314 c 17.54903,21.27153 34.05902,62.48486 34.15733,85.26592 0.0363,8.39979 -1.13108,9.32011 -11.82173,9.32011 -9.60253,0 -11.86197,1.29109 -11.86197,6.77827 0,5.53543 2.25944,6.77827 12.32262,6.77827 l 12.32265,0 -2.12631,15.51296 c -3.74259,27.30531 -28.36389,79.29294 -37.5846,79.3596 -1.76204,0.0136 -7.24525,-3.8489 -12.18495,-8.58141 -7.37943,-7.06998 -9.66242,-7.78383 -12.80063,-4.0025 -2.98982,3.60251 -0.62969,7.73257 10.86587,19.01463 l 14.68526,14.4125 12.63489,-14.64646 c 43.80614,-50.78042 51.93901,-129.91228 19.59196,-190.62765 -11.771,-22.09417 -48.41786,-58.74102 -70.51203,-70.51203 -52.12124,-27.76838 -125.60486,-25.88074 -176.25034,4.52748 -36.360209,21.83117 -69.720262,67.45582 -79.106359,108.18926 -11.676171,50.67177 3.406311,113.26025 35.98246,149.31815 l 12.29014,13.60371 14.610109,-14.33875 c 11.45907,-11.24622 13.78388,-15.33427 10.77924,-18.95463 z M 262.2005,367.92116 c 20.60512,-23.6256 36.91785,-44.59586 36.25047,-46.60056 -2.80326,-8.42081 -13.45327,-3.99823 -58.35477,24.23256 -44.11547,27.73663 -47.43444,30.55158 -48.44572,41.08887 -1.42352,14.83268 7.05248,24.23477 21.8476,24.23477 10.1636,0 14.82186,-4.1086 48.70242,-42.95564 z"
       id="path6011"
       inkscape:connector-curvature="0" />
  </g>
</svg>
